<svg width="19" height="20" viewBox="0 0 19 20" fill="none" xmlns="http://www.w3.org/2000/svg">
<path d="M6.96716 0C5.91738 0 5.06815 0.895833 5.06815 2C5.06815 2.52865 5.2687 3.03906 5.62275 3.41406C5.97928 3.78906 6.46208 4 6.96716 4H8.86617V2C8.86617 0.898438 8.01694 0.00260417 6.96716 0ZM6.96716 5.33333H1.89901C0.849231 5.33333 0 6.22917 0 7.33333C0 8.4375 0.851707 9.33333 1.89901 9.33333H6.96469C8.01446 9.33333 8.8637 8.4375 8.8637 7.33333C8.86617 6.22917 8.01446 5.33333 6.96716 5.33333ZM12.0328 9.33333C13.0826 9.33333 13.9343 8.4375 13.9318 7.33333V2C13.9318 0.895833 13.0826 0 12.0328 0C10.9831 0 10.1338 0.895833 10.1338 2V7.33333C10.1338 8.4401 10.9831 9.33333 12.0328 9.33333ZM19 7.33333C19 6.22917 18.1483 5.33333 17.101 5.33333C16.0537 5.33333 15.202 6.22917 15.202 7.33333V9.33333H17.101C18.1483 9.33333 19 8.4375 19 7.33333ZM17.0985 10.6667H12.0328C10.9831 10.6667 10.1338 11.5625 10.1338 12.6667C10.1338 13.1953 10.3344 13.7057 10.6884 14.0807C11.045 14.4557 11.5278 14.6667 12.0328 14.6667H17.0985C18.1483 14.6667 18.9975 13.7708 18.9975 12.6667C19 11.5625 18.1483 10.6693 17.0985 10.6667ZM12.0328 16H10.1338V18C10.1338 19.1042 10.9855 20 12.0328 20C13.0826 20 13.9343 19.1042 13.9318 18C13.9343 16.8958 13.0826 16.0026 12.0328 16ZM6.96716 10.6667C5.91738 10.6667 5.06815 11.5625 5.06815 12.6667V18C5.06815 19.1042 5.91986 20 6.96716 20C8.01694 20 8.86865 19.1042 8.86617 18V12.6667C8.86617 12.138 8.66562 11.6276 8.31157 11.2526C7.95504 10.8776 7.46977 10.6667 6.96716 10.6667ZM0 12.6667C0 13.1953 0.200547 13.7057 0.5546 14.0807C0.911128 14.4557 1.39393 14.6667 1.89901 14.6667C2.94879 14.6667 3.80049 13.7708 3.79802 12.6667V10.6667H1.89901C0.851707 10.6667 0 11.5625 0 12.6667Z" fill="white"/>
</svg>
